{"title":"Iraada Pakka [2010] - Xvid - 1 CD DVDRip - ESubs - -=Team_BDU=-","uid":5766702,"size":732163117,"categoryP":"video","categoryS":"movies","magnet":"?xt=urn:btih:ec50b742fee20c6af7255ca64c0b2cd32fdbb8a8&amp;dn=Iraada+Pakka+%5B2010%5D+-+Xvid+-+1+CD+DVDRip+-+ESubs+-+-%3DTeam_BDU%3D-&amp;tr=udp%3A%2F%2Ftracker.openbittorrent.com%3A80&amp;tr=udp%3A%2F%2Fopen.demonii.com%3A1337&amp;tr=udp%3A%2F%2Ftracker.coppersurfer.tk%3A6969&amp;tr=udp%3A%2F%2Fexodus.desync.com%3A6969","seeders":0,"leechers":0,"uploader":"Team_BDU","files":-1,"time":1281939231,"description":"General\nName                             : Iraada Pakka \nFormat                           : AVI\nFormat/Info                      : Audio Video Interleave\nFormat profile                   : OpenDML\nFile size                        : 698 MiB\nDuration                         : 2h 11mn\nOverall bit rate                 : 741 Kbps\nWriting application              : AVI-Mux GUI 1.17.8.3\n\n\nVideo\nID                               : 0\nFormat                           : MPEG-4 Visual\nFormat profile                   : Advanced Simple@L5\nFormat settings, BVOP            : Yes\nFormat settings, QPel            : No\nFormat settings, GMC             : No warppoints\nFormat settings, Matrix          : Default (H.263)\nCodec ID                         : XVID\nCodec ID/Hint                    : XviD\nDuration                         : 2h 11mn\nBit rate                         : 674 Kbps\nWidth                            : 640 pixels\nHeight                           : 272 pixels\nDisplay aspect ratio             : 2.35:1\nFrame rate                       : 23.976 fps\nColor space                      : YUV\nChroma subsampling               : 4:2:0\nBit depth                        : 8 bits\nScan type                        : Progressive\nBits/(Pixel*Frame)               : 0.161\nStream size                      : 635 MiB (91%)\nWriting library                  : XviD 1.2.1 \n\n\nAudio\nID                               : 1\nFormat                           : MPEG Audio\nFormat version                   : Version 2\nFormat profile                   : Layer 3\nMode                             : Joint stereo\nMode extension                   : MS Stereo\nCodec ID                         : 55\nCodec ID/Hint                    : MP3\nDuration                         : 2h 11mn\nBit rate mode                    : Constant\nBit rate                         : 64.0 Kbps\nChannel(s)                       : 2 channels\nSampling rate                    : 24.0 KHz\nStream size                      : 60.3 MiB (9%)\nAlignment                        : Aligned on interleaves\nInterleave, duration             : 979 ms (23.47 video frames)\nInterleave, preload duration     : 216 ms\nTitle                            : Iraada Pakka T81 2_0ch 448Kbps DELAY 0ms\nWriting library                  : LAME3.98r\n\n\nSource                           : DVD 9 \nRipper                           : Nordmariner","torrent":{"xt":"urn:btih:ec50b742fee20c6af7255ca64c0b2cd32fdbb8a8","amp;dn":"Iraada+Pakka+%5B2010%5D+-+Xvid+-+1+CD+DVDRip+-+ESubs+-+-%3DTeam_BDU%3D-","amp;tr":["udp%3A%2F%2Ftracker.openbittorrent.com%3A80","udp%3A%2F%2Fopen.demonii.com%3A1337","udp%3A%2F%2Ftracker.coppersurfer.tk%3A6969","udp%3A%2F%2Fexodus.desync.com%3A6969"],"infoHash":"ec50b742fee20c6af7255ca64c0b2cd32fdbb8a8","infoHashBuffer":{"type":"Buffer","data":[236,80,183,66,254,226,12,106,247,37,92,166,76,11,44,211,47,219,184,168]},"announce":[],"urlList":[]}}